<?xml version="1.0" encoding="UTF-8"?>
<!DOCTYPE svg PUBLIC "-//W3C//DTD SVG 1.1//EN" "http://www.w3.org/Graphics/SVG/1.1/DTD/svg11.dtd">
<!-- Creator: CorelDRAW -->
<svg xmlns="http://www.w3.org/2000/svg" xml:space="preserve" width="297mm" height="210mm" version="1.1" style="shape-rendering:geometricPrecision; text-rendering:geometricPrecision; image-rendering:optimizeQuality; fill-rule:evenodd; clip-rule:evenodd"
viewBox="0 0 29700 21000"
 xmlns:xlink="http://www.w3.org/1999/xlink"
 xmlns:xodm="http://www.corel.com/coreldraw/odm/2003">
 <defs>
     <clipPath id="id0">
      <path d="M23800.81 559.59l196.07 0.81c23.64,6.57 44.06,19.54 83.16,34.32l191.81 59.66 25.59 186.16c6.98,174.78 40.42,349.64 98.79,514.54l1.3 243.71 49.03 466.06 33.23 171.82c23.89,97.17 16.19,58.18 14.95,174.19l-14.22 1333.94c-1.48,138.05 -2.8,274.77 15.83,411.85l21.98 272.91c6.61,72.82 25.45,144.25 24.67,217.32 -2.71,254.4 -14.13,477.14 47.53,727.88 19.24,78.28 16.25,53.45 15.34,138.14l-31.61 2926.84c-40.81,189.06 -39.7,377.61 -41.75,569.85 -0.78,73.07 -21.14,144.07 -29.3,216.74 -19.16,170.7 -16.49,695.42 -18.68,900.49l-6.22 547.4 -77.58 398.27c-135.57,359.11 -113.63,662.05 -117.62,1035.29 -2.73,256.18 -20.76,576.68 26.9,822.96l103.92 433.76 6.31 258.39 58.8 397.96c0.29,148.02 15.22,295.54 50.61,439.46 24.4,99.27 13.05,47.05 17.42,156.44l30.59 263.89 -1.46 385.43 64.33 480.6 -2.45 229.54c-47.98,222.86 -40.5,451.37 -42.92,678l-28.91 180.69c-15.58,138.78 -25.92,1001.92 -12.29,1152.25l43.45 259.81c25.57,103.96 48.21,208.92 84.02,310.06l69.79 217.08c47.25,133.46 111.35,261.95 189.33,380.1 18.59,28.17 15.64,54.4 23.18,93.38l19.62 94c12.16,85.76 29.13,174.03 56.33,256.4 -88.22,134.47 -184.35,340.29 -229.91,494.38l-195.88 -2.09 -128.53 -98.06c-689.75,-476.72 -1655.12,-403.64 -2261.9,190.33 -80.2,78.5 -153.4,165.29 -217.21,257.6 -109.42,158.31 -213.46,320.13 -277.52,503.01 -134.25,-32.5 -67.25,-11.2 -190.99,-58.01 -42.55,-16.09 -128.14,-37.26 -162.12,-60.75 -72.04,-49.8 -45.5,-19.49 -82.87,-99.22l-248.32 -465.69c-42.93,-104.58 -96.46,-205.69 -158.73,-300.03 -24.02,-36.39 -41.3,-118.26 -57.28,-163.38l-69.79 -217.07c-183.83,-519.28 -627.13,-952.55 -1151.52,-1121.78 -175.51,-56.64 -256.43,-89.05 -449.67,-110.75 -103.39,-11.6 -299.42,-8.93 -328.65,-12.57 -42.02,-5.26 -141.38,-50.62 -193.16,-67.34 -98.41,-31.75 -213.18,-47.81 -306.44,-88.44 -253.02,-110.2 -480.81,-143.14 -754.17,-146.06l-3989.52 -42.56 -174.38 -67.13c-390.64,-126.04 -620.85,-57.64 -782.07,-100.9l-310.21 -78.93 -466.64 -76.8c-203.77,-54.74 -373.34,-59.28 -582.48,-61.51l-360.56 -66.89c-484.04,-62.87 -488.48,-50.34 -972.22,-55.5 -305.74,-3.26 -555.5,33.14 -835.28,164.27 -365.47,171.3 -658.61,466.76 -837.11,827.38l-90.36 179.4 -371.01 -3.96 -145.16 -80.76c-282.17,-146.6 -476.01,-244.93 -795.18,-280.77 -142.18,-15.96 -500.37,-20.25 -647.52,-6.9 -425.72,38.61 -803.67,228.56 -1104,529.6l-168.11 167.36c-16.81,18.1 -16.26,14.36 -40.52,20.33 -200.44,49.27 -90.16,51.91 -282.74,49.85l-439.28 -4.68 -188.06 -53.86 -67.25 -34.75 31.51 -2953.02c2.33,-218.46 -26.63,-434.41 -99.72,-640.99l23.11 -2316.46c-0.23,-118.81 -9.3,-237.5 -31.9,-354.28 -12.5,-64.63 -14.47,-155.12 -33.36,-252.75 -17.96,-92.82 -43.17,-165.72 -69.73,-254.63l-33.78 -216.85 11.65 -1057.11c22.75,-105.36 35.78,-213.51 38.29,-321.26l38.82 -146.65c52.82,-244.86 41.37,-533.67 44.07,-786.15l38.53 -3575.79c52.71,-244.19 41.37,-533.42 44.07,-786.15 2.25,-211.71 16.43,-765.66 0.91,-936.75l-30.21 -199.59 160.39 -56.93c144.71,-24.25 333.1,-83.03 469.06,-138.7l296.77 -58.35 169.54 -51.06 203.59 -0.11 263.9 -30.58 277.27 0.29c146.13,-5.84 292.53,-30.16 432.65,-72.06l192.54 -26.77c161.65,-31.29 314.48,-92.55 471.72,-139.54l456.44 -110.18c116.41,-34.84 122.21,-25.57 234.6,-35.77 144.55,-13.11 288.45,-44.55 425.28,-92.96l171.24 -42.68c59.67,-17.86 116.31,-38.75 178.4,-47.53l111.54 -16.92c117.31,-4.69 235.05,-21.26 349.07,-49.29l493.17 -119.73 222.35 -6.7 340.75 -43.58 472.84 -85.17c140.36,-5.61 275.59,-35.1 413.55,-58.86l404.97 -57.54c119.1,-29.29 45.28,-12.4 173.58,-24.03l279.55 -40.05c237.32,-30.36 579.52,-45.88 810.62,-102.72 119.11,-29.28 45.27,-12.39 173.58,-24.03 131.62,-11.94 204.5,-35.28 326.34,-59.33l270.17 0.37c117.31,-4.68 235.06,-21.25 349.07,-49.28l137.53 -24.43c116.08,-10.52 231.68,-33.06 343.4,-66.22 138.29,-41.04 78.3,-27.86 214.44,-47.16 91.51,-12.98 180.9,-39.22 272.76,-49.85l144.74 -6.65 259.81 -43.45c119.11,-29.29 45.28,-12.4 173.59,-24.04l557.44 -77.32c152.33,-21.54 301.08,-66.4 445.83,-117.64 60.54,-21.42 79.27,-28.9 148.73,-36.06 28.62,-2.96 225.92,3.77 328.82,-5.57 286.6,-25.99 481.35,-122.37 536.3,-129.43l222.35 -6.7c144.54,-13.11 288.45,-44.53 425.28,-92.96 44.34,-15.69 84.77,-13.64 132.56,-20.41 155.91,-22.11 367.36,-63.57 517.92,-116.87l460.03 1.02 466.06 -49.03c126.97,-18 220.45,-46.97 341.27,-84.26l184.77 -7.14c144.54,-13.11 288.45,-44.53 425.28,-92.96l96.5 -20.8c124.72,-17.69 244.39,-52.17 363.94,-90.9 84.73,-27.45 181.38,-36.76 289.18,-69.03l371.08 -95.76 188.76 -8.65 632.94 -94.63c117.3,-4.69 235.05,-21.26 349.06,-49.29l200.34 -49.7c142.26,-31.25 280.31,-71.77 412.57,-133.76l95.28 -40.55c88.03,-31.16 170.37,-72.19 253.68,-113.72 74.25,-37.02 162.15,-45.53 243.58,-69.7 37.64,-11.17 58.56,-18.39 72.83,-22.92z"/>
     </clipPath>
     <clipPath id="id1">
      <path d="M23800.81 559.59l196.07 0.81c23.64,6.57 44.06,19.54 83.16,34.32l191.81 59.66 25.59 186.16c6.98,174.78 40.42,349.64 98.79,514.54l1.3 243.71 49.03 466.06 33.23 171.82c23.89,97.17 16.19,58.18 14.95,174.19l-14.22 1333.94c-1.48,138.05 -2.8,274.77 15.83,411.85l21.98 272.91c6.61,72.82 25.45,144.25 24.67,217.32 -2.71,254.4 -14.13,477.14 47.53,727.88 19.24,78.28 16.25,53.45 15.34,138.14l-31.61 2926.84c-40.81,189.06 -39.7,377.61 -41.75,569.85 -0.78,73.07 -21.14,144.07 -29.3,216.74 -19.16,170.7 -16.49,695.42 -18.68,900.49l-6.22 547.4 -77.58 398.27c-135.57,359.11 -113.63,662.05 -117.62,1035.29 -2.73,256.18 -20.76,576.68 26.9,822.96l103.92 433.76 6.31 258.39 58.8 397.96c0.29,148.02 15.22,295.54 50.61,439.46 24.4,99.27 13.05,47.05 17.42,156.44l30.59 263.89 -1.46 385.43 64.33 480.6 -2.45 229.54c-47.98,222.86 -40.5,451.37 -42.92,678l-28.91 180.69c-15.58,138.78 -25.92,1001.92 -12.29,1152.25l43.45 259.81c25.57,103.96 48.21,208.92 84.02,310.06l69.79 217.08c47.25,133.46 111.35,261.95 189.33,380.1 18.59,28.17 15.64,54.4 23.18,93.38l19.62 94c12.16,85.76 29.13,174.03 56.33,256.4 -88.22,134.47 -184.35,340.29 -229.91,494.38l-195.88 -2.09 -128.53 -98.06c-689.75,-476.72 -1655.12,-403.64 -2261.9,190.33 -80.2,78.5 -153.4,165.29 -217.21,257.6 -109.42,158.31 -213.46,320.13 -277.52,503.01 -134.25,-32.5 -67.25,-11.2 -190.99,-58.01 -42.55,-16.09 -128.14,-37.26 -162.12,-60.75 -72.04,-49.8 -45.5,-19.49 -82.87,-99.22l-248.32 -465.69c-42.93,-104.58 -96.46,-205.69 -158.73,-300.03 -24.02,-36.39 -41.3,-118.26 -57.28,-163.38l-69.79 -217.07c-183.83,-519.28 -627.13,-952.55 -1151.52,-1121.78 -175.51,-56.64 -256.43,-89.05 -449.67,-110.75 -103.39,-11.6 -299.42,-8.93 -328.65,-12.57 -42.02,-5.26 -141.38,-50.62 -193.16,-67.34 -98.41,-31.75 -213.18,-47.81 -306.44,-88.44 -253.02,-110.2 -480.81,-143.14 -754.17,-146.06l-3989.52 -42.56 -174.38 -67.13c-390.64,-126.04 -620.85,-57.64 -782.07,-100.9l-310.21 -78.93 -466.64 -76.8c-203.77,-54.74 -373.34,-59.28 -582.48,-61.51l-360.56 -66.89c-484.04,-62.87 -488.48,-50.34 -972.22,-55.5 -305.74,-3.26 -555.5,33.14 -835.28,164.27 -365.47,171.3 -658.61,466.76 -837.11,827.38l-90.36 179.4 -371.01 -3.96 -145.16 -80.76c-282.17,-146.6 -476.01,-244.93 -795.18,-280.77 -142.18,-15.96 -500.37,-20.25 -647.52,-6.9 -425.72,38.61 -803.67,228.56 -1104,529.6l-168.11 167.36c-16.81,18.1 -16.26,14.36 -40.52,20.33 -200.44,49.27 -90.16,51.91 -282.74,49.85l-439.28 -4.68 -188.06 -53.86 -67.25 -34.75 31.51 -2953.02c2.33,-218.46 -26.63,-434.41 -99.72,-640.99l23.11 -2316.46c-0.23,-118.81 -9.3,-237.5 -31.9,-354.28 -12.5,-64.63 -14.47,-155.12 -33.36,-252.75 -17.96,-92.82 -43.17,-165.72 -69.73,-254.63l-33.78 -216.85 11.65 -1057.11c22.75,-105.36 35.78,-213.51 38.29,-321.26l38.82 -146.65c52.82,-244.86 41.37,-533.67 44.07,-786.15l38.53 -3575.79c52.71,-244.19 41.37,-533.42 44.07,-786.15 2.25,-211.71 16.43,-765.66 0.91,-936.75l-30.21 -199.59 160.39 -56.93c144.71,-24.25 333.1,-83.03 469.06,-138.7l296.77 -58.35 169.54 -51.06 203.59 -0.11 263.9 -30.58 277.27 0.29c146.13,-5.84 292.53,-30.16 432.65,-72.06l192.54 -26.77c161.65,-31.29 314.48,-92.55 471.72,-139.54l456.44 -110.18c116.41,-34.84 122.21,-25.57 234.6,-35.77 144.55,-13.11 288.45,-44.55 425.28,-92.96l171.24 -42.68c59.67,-17.86 116.31,-38.75 178.4,-47.53l111.54 -16.92c117.31,-4.69 235.05,-21.26 349.07,-49.29l493.17 -119.73 222.35 -6.7 340.75 -43.58 472.84 -85.17c140.36,-5.61 275.59,-35.1 413.55,-58.86l404.97 -57.54c119.1,-29.29 45.28,-12.4 173.58,-24.03l279.55 -40.05c237.32,-30.36 579.52,-45.88 810.62,-102.72 119.11,-29.28 45.27,-12.39 173.58,-24.03 131.62,-11.94 204.5,-35.28 326.34,-59.33l270.17 0.37c117.31,-4.68 235.06,-21.25 349.07,-49.28l137.53 -24.43c116.08,-10.52 231.68,-33.06 343.4,-66.22 138.29,-41.04 78.3,-27.86 214.44,-47.16 91.51,-12.98 180.9,-39.22 272.76,-49.85l144.74 -6.65 259.81 -43.45c119.11,-29.29 45.28,-12.4 173.59,-24.04l557.44 -77.32c152.33,-21.54 301.08,-66.4 445.83,-117.64 60.54,-21.42 79.27,-28.9 148.73,-36.06 28.62,-2.96 225.92,3.77 328.82,-5.57 286.6,-25.99 481.35,-122.37 536.3,-129.43l222.35 -6.7c144.54,-13.11 288.45,-44.53 425.28,-92.96 44.34,-15.69 84.77,-13.64 132.56,-20.41 155.91,-22.11 367.36,-63.57 517.92,-116.87l460.03 1.02 466.06 -49.03c126.97,-18 220.45,-46.97 341.27,-84.26l184.77 -7.14c144.54,-13.11 288.45,-44.53 425.28,-92.96l96.5 -20.8c124.72,-17.69 244.39,-52.17 363.94,-90.9 84.73,-27.45 181.38,-36.76 289.18,-69.03l371.08 -95.76 188.76 -8.65 632.94 -94.63c117.3,-4.69 235.05,-21.26 349.06,-49.29l200.34 -49.7c142.26,-31.25 280.31,-71.77 412.57,-133.76l95.28 -40.55c88.03,-31.16 170.37,-72.19 253.68,-113.72 74.25,-37.02 162.15,-45.53 243.58,-69.7 37.64,-11.17 58.56,-18.39 72.83,-22.92z"/>
     </clipPath>
     <clipPath id="id2">
      <path d="M23800.81 559.59l196.07 0.81c23.64,6.57 44.06,19.54 83.16,34.32l191.81 59.66 25.59 186.16c6.98,174.78 40.42,349.64 98.79,514.54l1.3 243.71 49.03 466.06 33.23 171.82c23.89,97.17 16.19,58.18 14.95,174.19l-14.22 1333.94c-1.48,138.05 -2.8,274.77 15.83,411.85l21.98 272.91c6.61,72.82 25.45,144.25 24.67,217.32 -2.71,254.4 -14.13,477.14 47.53,727.88 19.24,78.28 16.25,53.45 15.34,138.14l-31.61 2926.84c-40.81,189.06 -39.7,377.61 -41.75,569.85 -0.78,73.07 -21.14,144.07 -29.3,216.74 -19.16,170.7 -16.49,695.42 -18.68,900.49l-6.22 547.4 -77.58 398.27c-135.57,359.11 -113.63,662.05 -117.62,1035.29 -2.73,256.18 -20.76,576.68 26.9,822.96l103.92 433.76 6.31 258.39 58.8 397.96c0.29,148.02 15.22,295.54 50.61,439.46 24.4,99.27 13.05,47.05 17.42,156.44l30.59 263.89 -1.46 385.43 64.33 480.6 -2.45 229.54c-47.98,222.86 -40.5,451.37 -42.92,678l-28.91 180.69c-15.58,138.78 -25.92,1001.92 -12.29,1152.25l43.45 259.81c25.57,103.96 48.21,208.92 84.02,310.06l69.79 217.08c47.25,133.46 111.35,261.95 189.33,380.1 18.59,28.17 15.64,54.4 23.18,93.38l19.62 94c12.16,85.76 29.13,174.03 56.33,256.4 -88.22,134.47 -184.35,340.29 -229.91,494.38l-195.88 -2.09 -128.53 -98.06c-689.75,-476.72 -1655.12,-403.64 -2261.9,190.33 -80.2,78.5 -153.4,165.29 -217.21,257.6 -109.42,158.31 -213.46,320.13 -277.52,503.01 -134.25,-32.5 -67.25,-11.2 -190.99,-58.01 -42.55,-16.09 -128.14,-37.26 -162.12,-60.75 -72.04,-49.8 -45.5,-19.49 -82.87,-99.22l-248.32 -465.69c-42.93,-104.58 -96.46,-205.69 -158.73,-300.03 -24.02,-36.39 -41.3,-118.26 -57.28,-163.38l-69.79 -217.07c-183.83,-519.28 -627.13,-952.55 -1151.52,-1121.78 -175.51,-56.64 -256.43,-89.05 -449.67,-110.75 -103.39,-11.6 -299.42,-8.93 -328.65,-12.57 -42.02,-5.26 -141.38,-50.62 -193.16,-67.34 -98.41,-31.75 -213.18,-47.81 -306.44,-88.44 -253.02,-110.2 -480.81,-143.14 -754.17,-146.06l-3989.52 -42.56 -174.38 -67.13c-390.64,-126.04 -620.85,-57.64 -782.07,-100.9l-310.21 -78.93 -466.64 -76.8c-203.77,-54.74 -373.34,-59.28 -582.48,-61.51l-360.56 -66.89c-484.04,-62.87 -488.48,-50.34 -972.22,-55.5 -305.74,-3.26 -555.5,33.14 -835.28,164.27 -365.47,171.3 -658.61,466.76 -837.11,827.38l-90.36 179.4 -371.01 -3.96 -145.16 -80.76c-282.17,-146.6 -476.01,-244.93 -795.18,-280.77 -142.18,-15.96 -500.37,-20.25 -647.52,-6.9 -425.72,38.61 -803.67,228.56 -1104,529.6l-168.11 167.36c-16.81,18.1 -16.26,14.36 -40.52,20.33 -200.44,49.27 -90.16,51.91 -282.74,49.85l-439.28 -4.68 -188.06 -53.86 -67.25 -34.75 31.51 -2953.02c2.33,-218.46 -26.63,-434.41 -99.72,-640.99l23.11 -2316.46c-0.23,-118.81 -9.3,-237.5 -31.9,-354.28 -12.5,-64.63 -14.47,-155.12 -33.36,-252.75 -17.96,-92.82 -43.17,-165.72 -69.73,-254.63l-33.78 -216.85 11.65 -1057.11c22.75,-105.36 35.78,-213.51 38.29,-321.26l38.82 -146.65c52.82,-244.86 41.37,-533.67 44.07,-786.15l38.53 -3575.79c52.71,-244.19 41.37,-533.42 44.07,-786.15 2.25,-211.71 16.43,-765.66 0.91,-936.75l-30.21 -199.59 160.39 -56.93c144.71,-24.25 333.1,-83.03 469.06,-138.7l296.77 -58.35 169.54 -51.06 203.59 -0.11 263.9 -30.58 277.27 0.29c146.13,-5.84 292.53,-30.16 432.65,-72.06l192.54 -26.77c161.65,-31.29 314.48,-92.55 471.72,-139.54l456.44 -110.18c116.41,-34.84 122.21,-25.57 234.6,-35.77 144.55,-13.11 288.45,-44.55 425.28,-92.96l171.24 -42.68c59.67,-17.86 116.31,-38.75 178.4,-47.53l111.54 -16.92c117.31,-4.69 235.05,-21.26 349.07,-49.29l493.17 -119.73 222.35 -6.7 340.75 -43.58 472.84 -85.17c140.36,-5.61 275.59,-35.1 413.55,-58.86l404.97 -57.54c119.1,-29.29 45.28,-12.4 173.58,-24.03l279.55 -40.05c237.32,-30.36 579.52,-45.88 810.62,-102.72 119.11,-29.28 45.27,-12.39 173.58,-24.03 131.62,-11.94 204.5,-35.28 326.34,-59.33l270.17 0.37c117.31,-4.68 235.06,-21.25 349.07,-49.28l137.53 -24.43c116.08,-10.52 231.68,-33.06 343.4,-66.22 138.29,-41.04 78.3,-27.86 214.44,-47.16 91.51,-12.98 180.9,-39.22 272.76,-49.85l144.74 -6.65 259.81 -43.45c119.11,-29.29 45.28,-12.4 173.59,-24.04l557.44 -77.32c152.33,-21.54 301.08,-66.4 445.83,-117.64 60.54,-21.42 79.27,-28.9 148.73,-36.06 28.62,-2.96 225.92,3.77 328.82,-5.57 286.6,-25.99 481.35,-122.37 536.3,-129.43l222.35 -6.7c144.54,-13.11 288.45,-44.53 425.28,-92.96 44.34,-15.69 84.77,-13.64 132.56,-20.41 155.91,-22.11 367.36,-63.57 517.92,-116.87l460.03 1.02 466.06 -49.03c126.97,-18 220.45,-46.97 341.27,-84.26l184.77 -7.14c144.54,-13.11 288.45,-44.53 425.28,-92.96l96.5 -20.8c124.72,-17.69 244.39,-52.17 363.94,-90.9 84.73,-27.45 181.38,-36.76 289.18,-69.03l371.08 -95.76 188.76 -8.65 632.94 -94.63c117.3,-4.69 235.05,-21.26 349.06,-49.29l200.34 -49.7c142.26,-31.25 280.31,-71.77 412.57,-133.76l95.28 -40.55c88.03,-31.16 170.37,-72.19 253.68,-113.72 74.25,-37.02 162.15,-45.53 243.58,-69.7 37.64,-11.17 58.56,-18.39 72.83,-22.92z"/>
     </clipPath>
     <clipPath id="id3">
      <rect x="4644.83" y="1328.03" width="19307.35" height="16486.46"/>
     </clipPath>
     <clipPath id="id4">
      <path d="M11462.39 13768.24l8.82 -39.69c3.44,-22.51 -0.9,-9.43 7.07,-28.29l27.43 -76.6 52.84 -83.23c27.79,-41.13 31.35,-54.66 51.5,-91.77l24.36 -42.81c22.15,-36.46 40.04,-73.97 53.99,-112.05 55.23,-3.23 105.37,-13.12 166.96,-28.96l88.15 -29.8c12.13,-5.13 25.2,-5.09 38.19,-7.07 65.66,-10.03 147.58,-36.07 207.65,-65.01l73.71 -39.19c40.95,11.62 151.72,29.33 193.65,31.46l35.21 3.44c74.18,11.32 218.49,7.28 304.26,7.28 101.77,0 155.56,3.28 261.53,-23.98 33.61,-8.64 40.33,-5.28 75.09,-5.72 42.8,-0.54 85.53,-4.26 127.51,-12.85 38.82,-7.95 25.35,-6.95 60.6,-6.95l683.13 0 86.25 9.08 79.97 0.82 217.04 18.98c31.34,1.59 35.1,-1.12 64.91,3.43 28.92,4.42 58.59,3.71 87.2,9.57 91.43,18.7 119.44,17.52 207.16,17.52 81.23,0 144.7,-3.63 218.39,-25.52 66.82,28.34 138.82,45.39 213.09,49.15 56.67,2.87 185.49,0.82 248.88,0.82 82.18,0 226.9,4.08 301.29,-7.29l141.47 -24.01c15.05,-3.87 19.94,-2.85 35.43,-2.85 122.7,0 236.65,7.17 354.98,-38.72l89.06 -18.21 944.99 0 92.68 10.56 84.05 0.82 54.6 8.12c61.37,6.23 365.75,3.27 451.8,3.27 36.04,0 72.09,-1.84 107.74,-7.29l40.27 -4.1c53.33,-0.67 106.41,-6.61 158.13,-19.92 15.05,-3.87 19.93,-2.85 35.42,-2.85l51.5 0 321.96 55.46c88.36,18.08 204.65,12.86 298.29,12.86 78.46,0 310.7,2.96 372.1,-3.27l93.43 -16.65c30.6,-7.87 17.68,-9.82 44.55,-4.32l153.9 20.97c44.12,4.48 88.7,3.27 133,3.27l57.38 7.71 57.75 17.91c78.98,20.32 157.13,20.94 237.83,19.92 16.33,-0.21 32.31,-0.94 48,-2.2 39,7.29 79.09,11.08 119.85,11.08 67.61,0 348.28,2.61 406.23,-3.27 51.58,-5.23 25.57,-4.67 74.31,-4.67 71.27,0 138.07,2.44 208.2,-9.39l44.79 32.7c108.3,73.15 201.34,86.77 212.1,92.62 34.13,18.52 68.49,34 103.29,46.43 0.55,29.21 -1.71,99.27 6.98,156.15l21.64 104.77 8.82 93.24c9.34,61.14 15.56,57.92 15.56,124.5l-0.33 391.06c-11.35,74.4 -7.29,219.67 -7.29,301.98 0,147.24 0,294.48 0,441.71 0,37.34 1.65,74.63 7.29,111.59l15.56 132.12c0,50.06 -0.3,99.99 7.29,149.66l23.41 156.71c0.51,40.34 4.23,53.31 7.38,88.84l0 281.86 -23.18 125.23c-10.65,69.78 -4.82,156.9 -7.61,175.16 -11.34,74.3 -7.29,200.58 -7.29,279.14 0,65.04 -2.56,130.87 7.29,195.36 3.11,20.37 -2.18,297.01 1.15,362.68 2.35,46.34 10.47,91.77 22.22,136.56l7.42 120.28c0,47.96 3.23,95.68 12.85,142.75 3.59,17.52 2.38,29.9 2.38,47.65 0,25.57 -0.18,49.68 -0.08,72.88 -8.56,37.52 -13.52,75.92 -14.5,114.69l-15.06 122.58 -1.15 278.91c-10.21,66.93 -7.29,135.46 -7.29,202.98 0,21.99 -5.06,41.42 -10.54,62.73l-30.46 121.85c-25.17,97.83 -19.92,195.43 -19.92,295.21 0,25.19 -9.15,59.94 -11.97,87.62 -0.93,9.16 -4.29,36.37 -8.83,44.28l-44.8 61.99 -48.64 26.58c-34.59,21.02 -67.39,45.54 -97.34,72.76l-98.13 81.88c-20.11,20.11 -12.05,11.97 -51.4,15.96l-422.72 65.28 -116.89 -0.33c-74.4,-11.36 -198.62,-7.29 -279.13,-7.29l-103.97 7.29c-9.76,1.49 -72.36,1.07 -143.5,0.56 -60.1,-7.82 -101.29,-5.99 -183.96,-5.99l-455.42 0c-50.8,0 -101.17,2.64 -151.07,12.85l-84.49 7.88 -45.97 -4.2c-56.77,-2.88 -146.56,-0.83 -205.3,-0.83l-406.18 -0.56c-74.43,-11.35 -219.98,-7.29 -300.51,-7.29l-276.65 0 -74.57 -16.27 -227.71 -15.7c-74.51,-11.36 -218.14,-7.29 -300.51,-7.29l-636.02 0c-66.39,0 -132.49,8.71 -196,28.45 -13.77,4.27 -51.17,4.83 -64.99,6.23l-125.25 -3.27 -43.5 -8.42c-74.26,-11.33 -209.74,-7.28 -292.65,-7.28 -49.92,0 -27.05,0.44 -76.65,-4.59l-39.01 -3.83c-81.9,-12.5 -208.52,-3.72 -235.56,-7.85 -39.27,-6.01 -59.95,-14.63 -110.18,-19.73 -21.19,-2.15 -42.28,-3.37 -63.22,-3.71 -65.17,-16.4 -122.43,-19.32 -193,-19.32 -26.71,0 -53.03,-5.31 -79.74,-6.66 -56.77,-2.87 -189.37,-0.82 -249.65,-0.82 -72.82,0 -145.57,-1.83 -217.35,12.85 -24.27,4.97 -65.26,1.58 -92.2,2.94 -42.25,2.14 -84.6,8.56 -125.57,19.1 -14.02,3.61 -21.87,2.54 -36.51,2.54l-188.12 -0.2c-74.52,-11.35 -215.58,-7.29 -298.48,-7.29l-135.72 -0.2c-74.42,-11.36 -198.65,-7.28 -276.02,-7.28l-553.98 0c-37.25,0 -74.46,1.65 -111.33,7.28 -18.69,2.86 -133.22,-4.17 -209.61,7.49l-85.93 1.02 -94.95 12.03c-22.77,4.66 -64.8,2.12 -89.59,2.12l-420.19 -0.2 -102.85 -16.27c-38.79,-12.07 -24.14,-7.78 -61.64,-23.64 -27.45,-11.61 -61.71,-23.75 -96.33,-34.1l-17.59 -23.8 -6.64 -39.66c-14.09,-68.85 -16.85,-50.21 -16.85,-120 0,-89.45 2.96,-168.12 -19.92,-257.12l-32.54 -226.81c-4.11,-21.72 -16.6,-70.68 -16.85,-90.29 -0.54,-42.8 -4.26,-85.53 -12.85,-127.51 -7.13,-34.88 -6.95,-23.54 -6.95,-60.6l0 -950.44c0,-41.52 12.35,-82.19 16.54,-123.42 4.83,-47.68 3.26,-96.03 3.26,-143.89 0,-25.7 13.52,-83.84 16.54,-113.52l3.26 -94.4 16.54 -103.61c4.88,-48.09 5.69,-310.92 0,-367 -5.02,-49.43 -6.63,-27.1 -6.63,-83.81 0,-52.22 0.31,-103.98 -7.29,-155.76 -5.88,-40.02 -7.32,-80.44 -15.47,-120.26 -10.2,-49.84 -6.95,-24.98 -6.95,-80.4 0,-76.44 2.98,-349.65 -3.26,-411.2l-19.49 -132.13c-9.33,-45.61 -6.95,-25.57 -6.95,-70.49 0,-148.51 0,-297.02 0,-445.52l-13.17 -143.9c-4.08,-40.22 -6.63,-31.87 -6.63,-73.91l0 -364.23 6.63 -46.3c5.35,-52.68 5.17,-207.16 0,-258.09 -4.08,-40.26 -11.8,-79.03 -22.74,-116.08z"/>
     </clipPath>
     <clipPath id="id5">
      <path d="M11462.39 13768.24l8.82 -39.69c3.44,-22.51 -0.9,-9.43 7.07,-28.29l27.43 -76.6 52.84 -83.23c27.79,-41.13 31.35,-54.66 51.5,-91.77l24.36 -42.81c22.15,-36.46 40.04,-73.97 53.99,-112.05 55.23,-3.23 105.37,-13.12 166.96,-28.96l88.15 -29.8c12.13,-5.13 25.2,-5.09 38.19,-7.07 65.66,-10.03 147.58,-36.07 207.65,-65.01l73.71 -39.19c40.95,11.62 151.72,29.33 193.65,31.46l35.21 3.44c74.18,11.32 218.49,7.28 304.26,7.28 101.77,0 155.56,3.28 261.53,-23.98 33.61,-8.64 40.33,-5.28 75.09,-5.72 42.8,-0.54 85.53,-4.26 127.51,-12.85 38.82,-7.95 25.35,-6.95 60.6,-6.95l683.13 0 86.25 9.08 79.97 0.82 217.04 18.98c31.34,1.59 35.1,-1.12 64.91,3.43 28.92,4.42 58.59,3.71 87.2,9.57 91.43,18.7 119.44,17.52 207.16,17.52 81.23,0 144.7,-3.63 218.39,-25.52 66.82,28.34 138.82,45.39 213.09,49.15 56.67,2.87 185.49,0.82 248.88,0.82 82.18,0 226.9,4.08 301.29,-7.29l141.47 -24.01c15.05,-3.87 19.94,-2.85 35.43,-2.85 122.7,0 236.65,7.17 354.98,-38.72l89.06 -18.21 944.99 0 92.68 10.56 84.05 0.82 54.6 8.12c61.37,6.23 365.75,3.27 451.8,3.27 36.04,0 72.09,-1.84 107.74,-7.29l40.27 -4.1c53.33,-0.67 106.41,-6.61 158.13,-19.92 15.05,-3.87 19.93,-2.85 35.42,-2.85l51.5 0 321.96 55.46c88.36,18.08 204.65,12.86 298.29,12.86 78.46,0 310.7,2.96 372.1,-3.27l93.43 -16.65c30.6,-7.87 17.68,-9.82 44.55,-4.32l153.9 20.97c44.12,4.48 88.7,3.27 133,3.27l57.38 7.71 57.75 17.91c78.98,20.32 157.13,20.94 237.83,19.92 16.33,-0.21 32.31,-0.94 48,-2.2 39,7.29 79.09,11.08 119.85,11.08 67.61,0 348.28,2.61 406.23,-3.27 51.58,-5.23 25.57,-4.67 74.31,-4.67 71.27,0 138.07,2.44 208.2,-9.39l44.79 32.7c108.3,73.15 201.34,86.77 212.1,92.62 34.13,18.52 68.49,34 103.29,46.43 0.55,29.21 -1.71,99.27 6.98,156.15l21.64 104.77 8.82 93.24c9.34,61.14 15.56,57.92 15.56,124.5l-0.33 391.06c-11.35,74.4 -7.29,219.67 -7.29,301.98 0,147.24 0,294.48 0,441.71 0,37.34 1.65,74.63 7.29,111.59l15.56 132.12c0,50.06 -0.3,99.99 7.29,149.66l23.41 156.71c0.51,40.34 4.23,53.31 7.38,88.84l0 281.86 -23.18 125.23c-10.65,69.78 -4.82,156.9 -7.61,175.16 -11.34,74.3 -7.29,200.58 -7.29,279.14 0,65.04 -2.56,130.87 7.29,195.36 3.11,20.37 -2.18,297.01 1.15,362.68 2.35,46.34 10.47,91.77 22.22,136.56l7.42 120.28c0,47.96 3.23,95.68 12.85,142.75 3.59,17.52 2.38,29.9 2.38,47.65 0,25.57 -0.18,49.68 -0.08,72.88 -8.56,37.52 -13.52,75.92 -14.5,114.69l-15.06 122.58 -1.15 278.91c-10.21,66.93 -7.29,135.46 -7.29,202.98 0,21.99 -5.06,41.42 -10.54,62.73l-30.46 121.85c-25.17,97.83 -19.92,195.43 -19.92,295.21 0,25.19 -9.15,59.94 -11.97,87.62 -0.93,9.16 -4.29,36.37 -8.83,44.28l-44.8 61.99 -48.64 26.58c-34.59,21.02 -67.39,45.54 -97.34,72.76l-98.13 81.88c-20.11,20.11 -12.05,11.97 -51.4,15.96l-422.72 65.28 -116.89 -0.33c-74.4,-11.36 -198.62,-7.29 -279.13,-7.29l-103.97 7.29c-9.76,1.49 -72.36,1.07 -143.5,0.56 -60.1,-7.82 -101.29,-5.99 -183.96,-5.99l-455.42 0c-50.8,0 -101.17,2.64 -151.07,12.85l-84.49 7.88 -45.97 -4.2c-56.77,-2.88 -146.56,-0.83 -205.3,-0.83l-406.18 -0.56c-74.43,-11.35 -219.98,-7.29 -300.51,-7.29l-276.65 0 -74.57 -16.27 -227.71 -15.7c-74.51,-11.36 -218.14,-7.29 -300.51,-7.29l-636.02 0c-66.39,0 -132.49,8.71 -196,28.45 -13.77,4.27 -51.17,4.83 -64.99,6.23l-125.25 -3.27 -43.5 -8.42c-74.26,-11.33 -209.74,-7.28 -292.65,-7.28 -49.92,0 -27.05,0.44 -76.65,-4.59l-39.01 -3.83c-81.9,-12.5 -208.52,-3.72 -235.56,-7.85 -39.27,-6.01 -59.95,-14.63 -110.18,-19.73 -21.19,-2.15 -42.28,-3.37 -63.22,-3.71 -65.17,-16.4 -122.43,-19.32 -193,-19.32 -26.71,0 -53.03,-5.31 -79.74,-6.66 -56.77,-2.87 -189.37,-0.82 -249.65,-0.82 -72.82,0 -145.57,-1.83 -217.35,12.85 -24.27,4.97 -65.26,1.58 -92.2,2.94 -42.25,2.14 -84.6,8.56 -125.57,19.1 -14.02,3.61 -21.87,2.54 -36.51,2.54l-188.12 -0.2c-74.52,-11.35 -215.58,-7.29 -298.48,-7.29l-135.72 -0.2c-74.42,-11.36 -198.65,-7.28 -276.02,-7.28l-553.98 0c-37.25,0 -74.46,1.65 -111.33,7.28 -18.69,2.86 -133.22,-4.17 -209.61,7.49l-85.93 1.02 -94.95 12.03c-22.77,4.66 -64.8,2.12 -89.59,2.12l-420.19 -0.2 -102.85 -16.27c-38.79,-12.07 -24.14,-7.78 -61.64,-23.64 -27.45,-11.61 -61.71,-23.75 -96.33,-34.1l-17.59 -23.8 -6.64 -39.66c-14.09,-68.85 -16.85,-50.21 -16.85,-120 0,-89.45 2.96,-168.12 -19.92,-257.12l-32.54 -226.81c-4.11,-21.72 -16.6,-70.68 -16.85,-90.29 -0.54,-42.8 -4.26,-85.53 -12.85,-127.51 -7.13,-34.88 -6.95,-23.54 -6.95,-60.6l0 -950.44c0,-41.52 12.35,-82.19 16.54,-123.42 4.83,-47.68 3.26,-96.03 3.26,-143.89 0,-25.7 13.52,-83.84 16.54,-113.52l3.26 -94.4 16.54 -103.61c4.88,-48.09 5.69,-310.92 0,-367 -5.02,-49.43 -6.63,-27.1 -6.63,-83.81 0,-52.22 0.31,-103.98 -7.29,-155.76 -5.88,-40.02 -7.32,-80.44 -15.47,-120.26 -10.2,-49.84 -6.95,-24.98 -6.95,-80.4 0,-76.44 2.98,-349.65 -3.26,-411.2l-19.49 -132.13c-9.33,-45.61 -6.95,-25.57 -6.95,-70.49 0,-148.51 0,-297.02 0,-445.52l-13.17 -143.9c-4.08,-40.22 -6.63,-31.87 -6.63,-73.91l0 -364.23 6.63 -46.3c5.35,-52.68 5.17,-207.16 0,-258.09 -4.08,-40.26 -11.8,-79.03 -22.74,-116.08z"/>
     </clipPath>
     <clipPath id="id6">
      <path d="M11462.39 13768.24l8.82 -39.69c3.44,-22.51 -0.9,-9.43 7.07,-28.29l27.43 -76.6 52.84 -83.23c27.79,-41.13 31.35,-54.66 51.5,-91.77l24.36 -42.81c22.15,-36.46 40.04,-73.97 53.99,-112.05 55.23,-3.23 105.37,-13.12 166.96,-28.96l88.15 -29.8c12.13,-5.13 25.2,-5.09 38.19,-7.07 65.66,-10.03 147.58,-36.07 207.65,-65.01l73.71 -39.19c40.95,11.62 151.72,29.33 193.65,31.46l35.21 3.44c74.18,11.32 218.49,7.28 304.26,7.28 101.77,0 155.56,3.28 261.53,-23.98 33.61,-8.64 40.33,-5.28 75.09,-5.72 42.8,-0.54 85.53,-4.26 127.51,-12.85 38.82,-7.95 25.35,-6.95 60.6,-6.95l683.13 0 86.25 9.08 79.97 0.82 217.04 18.98c31.34,1.59 35.1,-1.12 64.91,3.43 28.92,4.42 58.59,3.71 87.2,9.57 91.43,18.7 119.44,17.52 207.16,17.52 81.23,0 144.7,-3.63 218.39,-25.52 66.82,28.34 138.82,45.39 213.09,49.15 56.67,2.87 185.49,0.82 248.88,0.82 82.18,0 226.9,4.08 301.29,-7.29l141.47 -24.01c15.05,-3.87 19.94,-2.85 35.43,-2.85 122.7,0 236.65,7.17 354.98,-38.72l89.06 -18.21 944.99 0 92.68 10.56 84.05 0.82 54.6 8.12c61.37,6.23 365.75,3.27 451.8,3.27 36.04,0 72.09,-1.84 107.74,-7.29l40.27 -4.1c53.33,-0.67 106.41,-6.61 158.13,-19.92 15.05,-3.87 19.93,-2.85 35.42,-2.85l51.5 0 321.96 55.46c88.36,18.08 204.65,12.86 298.29,12.86 78.46,0 310.7,2.96 372.1,-3.27l93.43 -16.65c30.6,-7.87 17.68,-9.82 44.55,-4.32l153.9 20.97c44.12,4.48 88.7,3.27 133,3.27l57.38 7.71 57.75 17.91c78.98,20.32 157.13,20.94 237.83,19.92 16.33,-0.21 32.31,-0.94 48,-2.2 39,7.29 79.09,11.08 119.85,11.08 67.61,0 348.28,2.61 406.23,-3.27 51.58,-5.23 25.57,-4.67 74.31,-4.67 71.27,0 138.07,2.44 208.2,-9.39l44.79 32.7c108.3,73.15 201.34,86.77 212.1,92.62 34.13,18.52 68.49,34 103.29,46.43 0.55,29.21 -1.71,99.27 6.98,156.15l21.64 104.77 8.82 93.24c9.34,61.14 15.56,57.92 15.56,124.5l-0.33 391.06c-11.35,74.4 -7.29,219.67 -7.29,301.98 0,147.24 0,294.48 0,441.71 0,37.34 1.65,74.63 7.29,111.59l15.56 132.12c0,50.06 -0.3,99.99 7.29,149.66l23.41 156.71c0.51,40.34 4.23,53.31 7.38,88.84l0 281.86 -23.18 125.23c-10.65,69.78 -4.82,156.9 -7.61,175.16 -11.34,74.3 -7.29,200.58 -7.29,279.14 0,65.04 -2.56,130.87 7.29,195.36 3.11,20.37 -2.18,297.01 1.15,362.68 2.35,46.34 10.47,91.77 22.22,136.56l7.42 120.28c0,47.96 3.23,95.68 12.85,142.75 3.59,17.52 2.38,29.9 2.38,47.65 0,25.57 -0.18,49.68 -0.08,72.88 -8.56,37.52 -13.52,75.92 -14.5,114.69l-15.06 122.58 -1.15 278.91c-10.21,66.93 -7.29,135.46 -7.29,202.98 0,21.99 -5.06,41.42 -10.54,62.73l-30.46 121.85c-25.17,97.83 -19.92,195.43 -19.92,295.21 0,25.19 -9.15,59.94 -11.97,87.62 -0.93,9.16 -4.29,36.37 -8.83,44.28l-44.8 61.99 -48.64 26.58c-34.59,21.02 -67.39,45.54 -97.34,72.76l-98.13 81.88c-20.11,20.11 -12.05,11.97 -51.4,15.96l-422.72 65.28 -116.89 -0.33c-74.4,-11.36 -198.62,-7.29 -279.13,-7.29l-103.97 7.29c-9.76,1.49 -72.36,1.07 -143.5,0.56 -60.1,-7.82 -101.29,-5.99 -183.96,-5.99l-455.42 0c-50.8,0 -101.17,2.64 -151.07,12.85l-84.49 7.88 -45.97 -4.2c-56.77,-2.88 -146.56,-0.83 -205.3,-0.83l-406.18 -0.56c-74.43,-11.35 -219.98,-7.29 -300.51,-7.29l-276.65 0 -74.57 -16.27 -227.71 -15.7c-74.51,-11.36 -218.14,-7.29 -300.51,-7.29l-636.02 0c-66.39,0 -132.49,8.71 -196,28.45 -13.77,4.27 -51.17,4.83 -64.99,6.23l-125.25 -3.27 -43.5 -8.42c-74.26,-11.33 -209.74,-7.28 -292.65,-7.28 -49.92,0 -27.05,0.44 -76.65,-4.59l-39.01 -3.83c-81.9,-12.5 -208.52,-3.72 -235.56,-7.85 -39.27,-6.01 -59.95,-14.63 -110.18,-19.73 -21.19,-2.15 -42.28,-3.37 -63.22,-3.71 -65.17,-16.4 -122.43,-19.32 -193,-19.32 -26.71,0 -53.03,-5.31 -79.74,-6.66 -56.77,-2.87 -189.37,-0.82 -249.65,-0.82 -72.82,0 -145.57,-1.83 -217.35,12.85 -24.27,4.97 -65.26,1.58 -92.2,2.94 -42.25,2.14 -84.6,8.56 -125.57,19.1 -14.02,3.61 -21.87,2.54 -36.51,2.54l-188.12 -0.2c-74.52,-11.35 -215.58,-7.29 -298.48,-7.29l-135.72 -0.2c-74.42,-11.36 -198.65,-7.28 -276.02,-7.28l-553.98 0c-37.25,0 -74.46,1.65 -111.33,7.28 -18.69,2.86 -133.22,-4.17 -209.61,7.49l-85.93 1.02 -94.95 12.03c-22.77,4.66 -64.8,2.12 -89.59,2.12l-420.19 -0.2 -102.85 -16.27c-38.79,-12.07 -24.14,-7.78 -61.64,-23.64 -27.45,-11.61 -61.71,-23.75 -96.33,-34.1l-17.59 -23.8 -6.64 -39.66c-14.09,-68.85 -16.85,-50.21 -16.85,-120 0,-89.45 2.96,-168.12 -19.92,-257.12l-32.54 -226.81c-4.11,-21.72 -16.6,-70.68 -16.85,-90.29 -0.54,-42.8 -4.26,-85.53 -12.85,-127.51 -7.13,-34.88 -6.95,-23.54 -6.95,-60.6l0 -950.44c0,-41.52 12.35,-82.19 16.54,-123.42 4.83,-47.68 3.26,-96.03 3.26,-143.89 0,-25.7 13.52,-83.84 16.54,-113.52l3.26 -94.4 16.54 -103.61c4.88,-48.09 5.69,-310.92 0,-367 -5.02,-49.43 -6.63,-27.1 -6.63,-83.81 0,-52.22 0.31,-103.98 -7.29,-155.76 -5.88,-40.02 -7.32,-80.44 -15.47,-120.26 -10.2,-49.84 -6.95,-24.98 -6.95,-80.4 0,-76.44 2.98,-349.65 -3.26,-411.2l-19.49 -132.13c-9.33,-45.61 -6.95,-25.57 -6.95,-70.49 0,-148.51 0,-297.02 0,-445.52l-13.17 -143.9c-4.08,-40.22 -6.63,-31.87 -6.63,-73.91l0 -364.23 6.63 -46.3c5.35,-52.68 5.17,-207.16 0,-258.09 -4.08,-40.26 -11.8,-79.03 -22.74,-116.08z"/>
     </clipPath>
     <clipPath id="id7">
      <rect x="12235" y="13574.88" width="8445.73" height="5182.65"/>
     </clipPath>
     <clipPath id="id8">
      <rect x="9893.98" y="14785.41" width="2827.53" height="5359.23"/>
     </clipPath>
     <clipPath id="id9">
      <path d="M10335.35 15062.17l1950.8 0c98.03,0 178.22,72.29 178.22,160.66l0 4408.01c0,88.37 -80.19,160.66 -178.22,160.66l-1950.8 0c-98.03,0 -178.22,-72.29 -178.22,-160.66l0 -4408.01c0,-88.37 80.19,-160.66 178.22,-160.66z"/>
     </clipPath>
 </defs>
 <g id="Layer_x0020_1">
  <metadata id="CorelCorpID_0Corel-Layer"/>
  <g id="_1488653440">
   <g>
    <g style="clip-path:url(#id0)">
    </g>
    <g style="clip-path:url(#id1)">
     <image x="-1328.43" y="456.36" width="31790.24" height="21266.1" xlink:href="Sistema-inoutchi_Images\Sistema-inoutchi_ImgID1.png"/>
    </g>
    <g style="clip-path:url(#id2)">
    </g>
    <g style="clip-path:url(#id3)">
     <image x="4644.83" y="1328.04" width="19307.35" height="16486.45" xlink:href="Sistema-inoutchi_Images\Sistema-inoutchi_ImgID2.png"/>
    </g>
   </g>
   <g>
    <g style="clip-path:url(#id4)">
    </g>
    <g style="clip-path:url(#id5)">
     <image x="7249.09" y="10444.38" width="17142.1" height="11428.07" xlink:href="Sistema-inoutchi_Images\Sistema-inoutchi_ImgID3.png"/>
    </g>
    <g style="clip-path:url(#id6)">
    </g>
    <g style="clip-path:url(#id7)">
     <image x="12235" y="13574.88" width="8445.73" height="5182.65" xlink:href="Sistema-inoutchi_Images\Sistema-inoutchi_ImgID4.png"/>
    </g>
   </g>
   <g>
    <g style="clip-path:url(#id8)">
     <image x="9893.98" y="14785.42" width="2827.53" height="5359.22" xlink:href="Sistema-inoutchi_Images\Sistema-inoutchi_ImgID5.png"/>
    </g>
    <g style="clip-path:url(#id9)">
     <image x="10156.86" y="15061.98" width="2309.04" height="4731.98" xlink:href="Sistema-inoutchi_Images\Sistema-inoutchi_ImgID6.png"/>
    </g>
   </g>
  </g>
 </g>
</svg>
