<?xml version="1.0" standalone="no"?>
<!DOCTYPE svg PUBLIC "-//W3C//DTD SVG 20010904//EN"
 "http://www.w3.org/TR/2001/REC-SVG-20010904/DTD/svg10.dtd">
<svg version="1.0" xmlns="http://www.w3.org/2000/svg"
 width="300.000000pt" height="133.000000pt" viewBox="0 0 300.000000 133.000000"
 preserveAspectRatio="xMidYMid meet">
<metadata>
Created by potrace 1.10, written by Peter Selinger 2001-2011
</metadata>
<g transform="translate(0.000000,133.000000) scale(0.100000,-0.100000)"
fill="#000000" stroke="none">
<path d="M2815 1318 c-11 -6 -45 -34 -75 -62 -308 -282 -652 -474 -970 -542
-103 -21 -334 -29 -443 -15 -48 7 -130 22 -181 35 -274 70 -586 248 -861 492
-44 39 -90 76 -102 82 -65 35 -143 -17 -143 -94 0 -31 59 -95 179 -194 l90
-74 -86 -95 c-48 -53 -115 -126 -150 -163 -57 -59 -63 -70 -63 -108 0 -55 42
-100 94 -100 44 0 62 15 234 203 l134 145 86 -53 c48 -29 121 -69 162 -90 41
-20 76 -38 77 -39 1 -1 -22 -92 -52 -201 -57 -209 -63 -242 -43 -278 18 -34
40 -46 84 -47 70 0 84 21 137 220 25 96 49 188 53 203 7 32 -1 32 124 -2 57
-16 262 -51 295 -51 3 0 5 -90 5 -200 0 -213 6 -247 49 -270 25 -13 77 -13
102 0 43 23 49 57 49 269 l0 200 48 6 c82 11 255 45 309 62 29 9 54 15 56 12
2 -2 28 -94 57 -204 62 -227 72 -245 142 -245 46 1 68 12 86 47 19 35 14 67
-43 278 -29 110 -53 200 -52 201 1 0 43 23 92 49 50 27 121 69 159 93 l70 44
73 -78 c39 -44 103 -113 140 -155 82 -92 119 -119 162 -119 48 0 91 46 91 99
0 35 -8 48 -67 113 -159 173 -228 250 -228 257 0 4 29 32 65 61 36 29 93 80
128 114 55 53 62 65 62 99 0 49 -13 73 -50 92 -34 18 -58 19 -85 3z"/>
</g>
</svg>
