<?xml version="1.0" standalone="no"?>
<!DOCTYPE svg PUBLIC "-//W3C//DTD SVG 20010904//EN"
 "http://www.w3.org/TR/2001/REC-SVG-20010904/DTD/svg10.dtd">
<svg version="1.0" xmlns="http://www.w3.org/2000/svg"
 width="300.000000pt" height="153.000000pt" viewBox="0 0 300.000000 153.000000"
 preserveAspectRatio="xMidYMid meet">
<metadata>
Created by potrace 1.10, written by Peter Selinger 2001-2011
</metadata>
<g transform="translate(0.000000,153.000000) scale(0.100000,-0.100000)"
fill="#000000" stroke="none">
<path d="M1320 1514 c-422 -53 -884 -293 -1262 -655 -45 -42 -48 -49 -48 -95
0 -48 1 -50 78 -124 225 -218 575 -439 842 -533 194 -68 399 -107 568 -107 91
0 279 23 372 45 343 82 690 279 1027 583 125 113 129 147 26 244 -325 312
-731 541 -1098 618 -75 16 -145 22 -285 25 -102 2 -201 1 -220 -1z m-287 -306
c-62 -65 -120 -162 -150 -252 -22 -69 -26 -98 -26 -201 0 -103 4 -132 26 -201
27 -80 86 -184 135 -237 32 -33 21 -34 -62 -3 -161 61 -389 196 -561 332 -129
103 -138 111 -130 124 13 20 205 169 305 235 123 82 268 159 389 206 53 21
100 38 106 38 5 1 -9 -18 -32 -41z m1054 -15 c180 -77 341 -177 541 -336 l112
-90 -22 -24 c-33 -36 -213 -174 -308 -237 -119 -79 -420 -230 -420 -210 0 3
19 28 42 57 47 60 99 167 119 247 22 89 17 251 -10 340 -29 95 -77 182 -138
250 -54 61 -52 61 84 3z m-485 6 c133 -28 261 -129 318 -251 83 -178 43 -389
-101 -522 -69 -64 -114 -90 -196 -111 -162 -42 -329 8 -445 134 -84 91 -118
179 -118 304 0 98 20 168 69 244 105 162 288 241 473 202z"/>
<path d="M1425 965 c-86 -30 -156 -152 -139 -242 21 -117 110 -193 224 -193
129 0 223 95 223 225 0 162 -151 265 -308 210z"/>
</g>
</svg>
